# File created by Blade
# Date/Time:  Mon Nov 15 14:44:42 2010
#---------------------------------------------------------
:version 1.10
:name HOM
:units
  mass 1.0
  length 1.000000
  angle deg
:documentation
     Acclaim Skeleton File
:root
   axis xyz
   order TX TY TZ RX RY RZ
   position 0.000000 0.000000 0.000000
   orientation 0 0 0
:bonedata
   begin
      id 1
      name LeftUpLeg_dum
      direction 1.000000 0.000000 0.000000
      length 4.719518
      axis 0.0 0.0 0.0 xyz
   end
   begin
      id 2
      name RightUpLeg_dum
      direction -1.000000 0.000000 0.000000
      length 4.719518
      axis 0.0 0.0 0.0 xyz
   end
   begin
      id 3
      name Spine_dum
      direction 0.000000 1.000000 0.000000
      length 0.039370
      axis 0.0 0.0 0.0 xyz
   end
   begin
      id 4
      name LeftUpLeg
      direction 0.000000 -1.000000 0.000000
      length 19.141694
      axis 0.0 0.0 0.0 xyz
      dof rx ry rz
   end
   begin
      id 5
      name LeftLeg
      direction 0.000000 -1.000000 0.000000
      length 19.555040
      axis 0.0 0.0 0.0 xyz
      dof rx ry rz
   end
   begin
      id 6
      name LeftFoot
      direction 0.000000 -0.258819 0.965926
      length 6.929396
      axis 15.0 0.0 0.0 xyz
      dof rx ry rz
   end
   begin
      id 7
      name LeftToeBase
      direction 0.000000 0.000000 1.000000
      length 2.952750
      axis 0.0 0.0 0.0 xyz
      dof rx ry rz
   end
   begin
      id 8
      name RightUpLeg
      direction 0.000000 -1.000000 0.000000
      length 19.141694
      axis 0.0 0.0 0.0 xyz
      dof rx ry rz
   end
   begin
      id 9
      name RightLeg
      direction 0.000000 -1.000000 0.000000
      length 19.555040
      axis 0.0 0.0 0.0 xyz
      dof rx ry rz
   end
   begin
      id 10
      name RightFoot
      direction 0.000000 -0.258819 0.965926
      length 6.929396
      axis 15.0 0.0 0.0 xyz
      dof rx ry rz
   end
   begin
      id 11
      name RightToeBase
      direction 0.000000 0.000000 1.000000
      length 2.952750
      axis 0.0 0.0 0.0 xyz
      dof rx ry rz
   end
   begin
      id 12
      name Spine
      direction 0.000000 1.000000 0.000000
      length 11.965764
      axis 0.0 0.0 0.0 xyz
      dof rx ry rz
   end
   begin
      id 13
      name Spine1
      direction 0.000000 1.000000 0.000000
      length 0.000000
      axis 0.0 0.0 0.0 xyz
      dof rx ry rz
   end
   begin
      id 14
      name Spine1_dum1
      direction 0.000000 1.000000 0.000000
      length 9.788721
      axis 0.0 0.0 0.0 xyz
   end
   begin
      id 15
      name Spine1_dum2
      direction 0.000000 1.000000 0.000000
      length 9.788721
      axis 0.0 0.0 0.0 xyz
   end
   begin
      id 16
      name Spine1_dum3
      direction 0.000000 1.000000 0.000000
      length 9.788721
      axis 0.0 0.0 0.0 xyz
   end
   begin
      id 17
      name Neck
      direction 0.000000 1.000000 0.000000
      length 7.029632
      axis 0.0 0.0 0.0 xyz
      dof rx ry rz
   end
   begin
      id 18
      name Head
      direction 0.000000 1.000000 0.000000
      length 4.527550
      axis 0.0 0.0 0.0 xyz
      dof rx ry rz
   end
   begin
      id 19
      name LeftShoulder
      direction 1.000000 -0.000004 0.000000
      length 9.320257
      axis 0.0 0.0 -90.0 xyz
      dof rx ry rz
   end
   begin
      id 20
      name LeftArm
      direction 1.000000 -0.000004 0.000000
      length 12.801352
      axis 0.0 0.0 -90.0 xyz
      dof rx ry rz
   end
   begin
      id 21
      name LeftForeArm
      direction 1.000000 -0.000004 0.000000
      length 11.278127
      axis 0.0 0.0 -90.0 xyz
      dof rx ry rz
   end
   begin
      id 22
      name LeftHand
      direction 0.000000 0.000000 0.000000
      length 0.000000
      axis 0.0 0.0 -90.0 xyz
      dof rx ry rz
   end
   begin
      id 23
      name LeftHand_dum1
      direction 0.000000 0.000000 0.000000
      length 0.000000
      axis 0.0 0.0 -90.0 xyz
   end
   begin
      id 24
      name LeftHand_dum2
      direction 1.000000 -0.000004 0.000000
      length 3.937000
      axis 0.0 0.0 -90.0 xyz
   end
   begin
      id 25
      name LeftHandThumb
      direction 0.000000 0.000000 1.000000
      length 3.937000
      axis 0.0 0.0 -90.0 xyz
      dof rx ry rz
   end
   begin
      id 26
      name RightShoulder
      direction -1.000000 -0.000004 0.000000
      length 9.320257
      axis 0.0 0.0 90.0 xyz
      dof rx ry rz
   end
   begin
      id 27
      name RightArm
      direction -1.000000 -0.000004 0.000000
      length 12.801352
      axis 0.0 0.0 90.0 xyz
      dof rx ry rz
   end
   begin
      id 28
      name RightForeArm
      direction -1.000000 -0.000004 0.000000
      length 11.278127
      axis 0.0 0.0 90.0 xyz
      dof rx ry rz
   end
   begin
      id 29
      name RightHand
      direction 0.000000 0.000000 0.000000
      length 0.000000
      axis 0.0 0.0 90.0 xyz
      dof rx ry rz
   end
   begin
      id 30
      name RightHand_dum1
      direction 0.000000 0.000000 0.000000
      length 0.000000
      axis 0.0 0.0 90.0 xyz
   end
   begin
      id 31
      name RightHand_dum2
      direction -1.000000 -0.000004 0.000000
      length 5.393690
      axis 0.0 0.0 90.0 xyz
   end
   begin
      id 32
      name RightHandThumb
      direction 0.000000 0.000000 1.000000
      length 3.937000
      axis 0.0 0.0 90.0 xyz
      dof rx ry rz
   end
:hierarchy
   begin
      root LeftUpLeg_dum RightUpLeg_dum Spine_dum
      LeftUpLeg_dum LeftUpLeg
      RightUpLeg_dum RightUpLeg
      Spine_dum Spine
      LeftUpLeg LeftLeg
      LeftLeg LeftFoot
      LeftFoot LeftToeBase
      RightUpLeg RightLeg
      RightLeg RightFoot
      RightFoot RightToeBase
      Spine Spine1
      Spine1 Spine1_dum1 Spine1_dum2 Spine1_dum3
      Spine1_dum1 Neck
      Spine1_dum2 LeftShoulder
      Spine1_dum3 RightShoulder
      Neck Head
      LeftShoulder LeftArm
      LeftArm LeftForeArm
      LeftForeArm LeftHand
      LeftHand LeftHand_dum1 LeftHand_dum2
      LeftHand_dum1 LeftHandThumb
      RightShoulder RightArm
      RightArm RightForeArm
      RightForeArm RightHand
      RightHand RightHand_dum1 RightHand_dum2
      RightHand_dum1 RightHandThumb
   end

# File created by Blade
# Date/Time:  Mon Nov 15 14:56:25 2010
# Frame Rate: 200.000 fps
#------------------------------------------------------
:FULLY-SPECIFIED
:DEGREES
992
root  1.872138 41.464412 104.946709 -14.026820 2.120285 0.916436
LeftUpLeg  19.603100 10.508673 -0.223223
LeftLeg  -6.860219 0.000000 -0.000000
LeftFoot  10.284855 3.840970 4.829852
LeftToeBase  -13.212563 0.000000 -0.000000
RightUpLeg  20.590148 -6.770892 -0.493624
RightLeg  -6.809253 0.000000 -0.000000
RightFoot  5.497584 -10.942173 -9.604491
RightToeBase  -23.342668 0.000000 -0.000000
Spine  13.405989 -1.870961 0.359160
Spine1  -0.391692 0.355733 -3.342300
Neck  12.008751 -1.634076 -2.807429
Head  -16.250018 -5.649900 3.587388
LeftShoulder  -13.890844 6.206199 17.282262
LeftArm  16.841347 -47.511593 -38.009801
LeftForeArm  10.595017 -0.000000 0.000000
LeftHand  -9.218425 11.464302 -11.300043
LeftHandThumb  0.000000 -0.000000 0.000000
RightShoulder  -15.811249 -11.412333 -17.883694
RightArm  10.950172 31.234184 39.634524
RightForeArm  17.833485 -0.000000 0.000000
RightHand  -5.714088 -2.530927 20.001827
RightHandThumb  0.000000 -0.000000 0.000000
993
root  1.870775 41.464800 104.949838 -14.023202 2.137547 0.922692
LeftUpLeg  19.599379 10.568928 -0.211019
LeftLeg  -6.848174 0.000000 -0.000000
LeftFoot  10.280318 3.769923 4.814270
LeftToeBase  -13.246407 0.000000 -0.000000
RightUpLeg  20.608137 -6.794893 -0.507986
RightLeg  -6.836372 0.000000 -0.000000
RightFoot  5.489931 -10.921698 -9.533406
RightToeBase  -23.408409 0.000000 -0.000000
Spine  13.397887 -1.884951 0.360181
Spine1  -0.389073 0.341328 -3.356705
Neck  12.021045 -1.620630 -2.803205
Head  -16.292010 -5.634139 3.580257
LeftShoulder  -13.875073 6.182799 17.264175
LeftArm  16.861351 -47.473054 -38.067314
LeftForeArm  10.644458 -0.000000 0.000000
LeftHand  -9.266577 11.400715 -11.460845
LeftHandThumb  0.000000 -0.000000 0.000000
RightShoulder  -15.794100 -11.404725 -17.866187
RightArm  10.975426 31.217902 39.676635
RightForeArm  17.898655 -0.000000 0.000000
RightHand  -5.805163 -2.463200 20.059699
RightHandThumb  0.000000 -0.000000 0.000000
994
root  1.869309 41.464397 104.952495 -14.018130 2.150622 0.928448
LeftUpLeg  19.594676 10.530036 -0.226436
LeftLeg  -6.848880 0.000000 -0.000000
LeftFoot  10.285191 3.800889 4.809954
LeftToeBase  -13.216141 0.000000 -0.000000
RightUpLeg  20.622869 -6.829603 -0.522447
RightLeg  -6.861089 0.000000 -0.000000
RightFoot  5.489737 -10.891426 -9.545457
RightToeBase  -23.385065 0.000000 -0.000000
Spine  13.399751 -1.893720 0.362772
Spine1  -0.404013 0.332031 -3.376266
Neck  11.998083 -1.612424 -2.796724
Head  -16.276460 -5.632772 3.583242
LeftShoulder  -13.866064 6.182213 17.247909
LeftArm  16.926371 -47.435735 -38.142428
LeftForeArm  10.669543 -0.000000 0.000000
LeftHand  -9.335085 11.507906 -11.589346
LeftHandThumb  0.000000 -0.000000 0.000000
RightShoulder  -15.787513 -11.401388 -17.854181
RightArm  11.000220 31.166535 39.713565
RightForeArm  17.936814 -0.000000 0.000000
RightHand  -5.841064 -2.469351 20.117718
RightHandThumb  0.000000 -0.000000 0.000000
995
root  1.867412 41.463887 104.954904 -14.013056 2.163698 0.934206
LeftUpLeg  19.589984 10.491143 -0.241847
LeftLeg  -6.849586 0.000000 -0.000000
LeftFoot  10.290061 3.831855 4.805641
LeftToeBase  -13.185876 0.000000 -0.000000
RightUpLeg  20.637611 -6.864310 -0.536917
RightLeg  -6.885806 0.000000 -0.000000
RightFoot  5.489536 -10.861155 -9.557506
RightToeBase  -23.361722 0.000000 -0.000000
Spine  13.401614 -1.902488 0.365362
Spine1  -0.418950 0.322730 -3.395824
Neck  11.975121 -1.604215 -2.790245
Head  -16.260910 -5.631407 3.586228
LeftShoulder  -13.857055 6.181631 17.231642
LeftArm  16.991272 -47.398359 -38.217425
LeftForeArm  10.694627 -0.000000 0.000000
LeftHand  -9.403865 11.614946 -11.718027
LeftHandThumb  0.000000 -0.000000 0.000000
RightShoulder  -15.780924 -11.398052 -17.842175
RightArm  11.024962 31.115154 39.750448
RightForeArm  17.974972 -0.000000 0.000000
RightHand  -5.876971 -2.475465 20.175741
RightHandThumb  0.000000 -0.000000 0.000000
996
root  1.864524 41.463831 104.957546 -14.008982 2.166560 0.935936
LeftUpLeg  19.590158 10.465049 -0.246958
LeftLeg  -6.855507 0.000000 -0.000000
LeftFoot  10.295326 3.857609 4.805917
LeftToeBase  -13.177869 0.000000 -0.000000
RightUpLeg  20.651163 -6.882901 -0.539700
RightLeg  -6.912230 0.000000 -0.000000
RightFoot  5.504175 -10.846169 -9.571807
RightToeBase  -23.351981 0.000000 -0.000000
Spine  13.400178 -1.905395 0.365699
Spine1  -0.427275 0.319368 -3.404450
Neck  11.970305 -1.578897 -2.797722
Head  -16.281609 -5.633714 3.619615
LeftShoulder  -13.841129 6.178506 17.215252
LeftArm  17.042858 -47.374839 -38.281436
LeftForeArm  10.728994 -0.000000 0.000000
LeftHand  -9.484966 11.631090 -11.824924
LeftHandThumb  0.000000 -0.000000 0.000000
RightShoulder  -15.771207 -11.392348 -17.831159
RightArm  11.045335 31.078051 39.777758
RightForeArm  18.020015 -0.000000 0.000000
RightHand  -5.936029 -2.520779 20.264842
RightHandThumb  0.000000 -0.000000 0.000000
